<svg xmlns="http://www.w3.org/2000/svg" width="1920" height="1080"><path d="M-43,1508L-355,1545L291,1510Z" fill="#ced9be" stroke="#ced9be" stroke-width="1.51"/><path d="M291,1510L-355,1545L632,1510Z" fill="#c0cfac" stroke="#c0cfac" stroke-width="1.51"/><path d="M319,-472L982,-450L1271,-466Z" fill="#9bb37d" stroke="#9bb37d" stroke-width="1.51"/><path d="M319,-472L1271,-466L1614,-468Z" fill="#9bb47d" stroke="#9bb47d" stroke-width="1.51"/><path d="M632,1510L-355,1545L1952,1556Z" fill="#9eb682" stroke="#9eb682" stroke-width="1.51"/><path d="M1284,1512L962,1506L1952,1556Z" fill="#aac090" stroke="#aac090" stroke-width="1.51"/><path d="M962,1506L632,1510L1952,1556Z" fill="#9db680" stroke="#9db680" stroke-width="1.51"/><path d="M1629,1515L1284,1512L1952,1556Z" fill="#b8c9a2" stroke="#b8c9a2" stroke-width="1.51"/><path d="M1935,-114L1928,212L2255,-122Z" fill="#b1c499" stroke="#b1c499" stroke-width="1.51"/><path d="M1962,-442L1935,-114L2255,-122Z" fill="#c3d1b0" stroke="#c3d1b0" stroke-width="1.51"/><path d="M1943,521L1951,848L2277,560Z" fill="#8eaa6d" stroke="#8eaa6d" stroke-width="1.51"/><path d="M2277,560L1951,848L2285,844Z" fill="#9db580" stroke="#9db580" stroke-width="1.51"/><path d="M1951,848L1965,1190L2285,844Z" fill="#a7bd8c" stroke="#a7bd8c" stroke-width="1.51"/><path d="M1965,1190L1952,1556L2291,1535Z" fill="#cbd7ba" stroke="#cbd7ba" stroke-width="1.51"/><path d="M1965,1190L2291,1535L2292,1220Z" fill="#c9d6b8" stroke="#c9d6b8" stroke-width="1.51"/><path d="M2285,844L1965,1190L2292,1220Z" fill="#b7c9a1" stroke="#b7c9a1" stroke-width="1.51"/><path d="M2255,-122L1928,212L2298,197Z" fill="#afc397" stroke="#afc397" stroke-width="1.51"/><path d="M1943,521L2277,560L2298,197Z" fill="#96b077" stroke="#96b077" stroke-width="1.51"/><path d="M1928,212L1943,521L2298,197Z" fill="#98b279" stroke="#98b279" stroke-width="1.51"/><path d="M2277,560L2285,844L2298,197Z" fill="#94af74" stroke="#94af74" stroke-width="1.51"/><path d="M2285,844L2292,1220L2298,197Z" fill="#a4bb89" stroke="#a4bb89" stroke-width="1.51"/><path d="M319,-472L1614,-468L2305,-475Z" fill="#b0c398" stroke="#b0c398" stroke-width="1.51"/><path d="M1614,-468L1962,-442L2305,-475Z" fill="#d0dcc2" stroke="#d0dcc2" stroke-width="1.51"/><path d="M1962,-442L2255,-122L2305,-475Z" fill="#d4dec6" stroke="#d4dec6" stroke-width="1.51"/><path d="M2255,-122L2298,197L2305,-475Z" fill="#cad6b9" stroke="#cad6b9" stroke-width="1.51"/><path d="M319,-472L625,-426L982,-450Z" fill="#a7bd8c" stroke="#a7bd8c" stroke-width="1.51"/><path d="M1624,183L1619,517L1928,212Z" fill="#85a361" stroke="#85a361" stroke-width="1.51"/><path d="M1624,183L1928,212L1935,-114Z" fill="#9bb47e" stroke="#9bb47e" stroke-width="1.51"/><path d="M1604,-131L1624,183L1935,-114Z" fill="#9fb682" stroke="#9fb682" stroke-width="1.51"/><path d="M1928,212L1619,517L1943,521Z" fill="#82a25e" stroke="#82a25e" stroke-width="1.51"/><path d="M1619,880L1645,1197L1951,848Z" fill="#94af74" stroke="#94af74" stroke-width="1.51"/><path d="M1943,521L1619,517L1951,848Z" fill="#7fa05a" stroke="#7fa05a" stroke-width="1.51"/><path d="M1619,517L1619,880L1951,848Z" fill="#82a25e" stroke="#82a25e" stroke-width="1.51"/><path d="M1604,-131L1935,-114L1962,-442Z" fill="#b6c89f" stroke="#b6c89f" stroke-width="1.51"/><path d="M1614,-468L1604,-131L1962,-442Z" fill="#b9caa3" stroke="#b9caa3" stroke-width="1.51"/><path d="M1951,848L1645,1197L1965,1190Z" fill="#a3ba87" stroke="#a3ba87" stroke-width="1.51"/><path d="M1629,1515L1952,1556L1965,1190Z" fill="#bdcea9" stroke="#bdcea9" stroke-width="1.51"/><path d="M1645,1197L1629,1515L1965,1190Z" fill="#adc295" stroke="#adc295" stroke-width="1.51"/><path d="M1271,-466L1302,-98L1604,-131Z" fill="#9cb47e" stroke="#9cb47e" stroke-width="1.51"/><path d="M1271,-466L1604,-131L1614,-468Z" fill="#acc093" stroke="#acc093" stroke-width="1.51"/><path d="M1280,859L1298,1186L1619,880Z" fill="#80a05b" stroke="#80a05b" stroke-width="1.51"/><path d="M1311,226L1267,516L1619,517Z" fill="#678f3d" stroke="#678f3d" stroke-width="1.51"/><path d="M1280,859L1619,880L1619,517Z" fill="#75984e" stroke="#75984e" stroke-width="1.51"/><path d="M1267,516L1280,859L1619,517Z" fill="#648c39" stroke="#648c39" stroke-width="1.51"/><path d="M1604,-131L1302,-98L1624,183Z" fill="#92ac71" stroke="#92ac71" stroke-width="1.51"/><path d="M1302,-98L1311,226L1624,183Z" fill="#82a15e" stroke="#82a15e" stroke-width="1.51"/><path d="M1311,226L1619,517L1624,183Z" fill="#789a52" stroke="#789a52" stroke-width="1.51"/><path d="M1298,1186L1284,1512L1629,1515Z" fill="#a2b985" stroke="#a2b985" stroke-width="1.51"/><path d="M1298,1186L1629,1515L1645,1197Z" fill="#a1b884" stroke="#a1b884" stroke-width="1.51"/><path d="M1619,880L1298,1186L1645,1197Z" fill="#90ab6f" stroke="#90ab6f" stroke-width="1.51"/><path d="M937,535L975,847L1267,516Z" fill="#507e1f" stroke="#507e1f" stroke-width="1.51"/><path d="M961,205L937,535L1267,516Z" fill="#528022" stroke="#528022" stroke-width="1.51"/><path d="M1267,516L975,847L1280,859Z" fill="#608934" stroke="#608934" stroke-width="1.51"/><path d="M975,847L987,1216L1280,859Z" fill="#6c9243" stroke="#6c9243" stroke-width="1.51"/><path d="M987,1216L962,1506L1284,1512Z" fill="#8faa6d" stroke="#8faa6d" stroke-width="1.51"/><path d="M987,1216L1284,1512L1298,1186Z" fill="#8daa6b" stroke="#8daa6b" stroke-width="1.51"/><path d="M1280,859L987,1216L1298,1186Z" fill="#7c9d56" stroke="#7c9d56" stroke-width="1.51"/><path d="M1271,-466L982,-450L1302,-98Z" fill="#98b179" stroke="#98b179" stroke-width="1.51"/><path d="M982,-450L937,-94L1302,-98Z" fill="#87a564" stroke="#87a564" stroke-width="1.51"/><path d="M937,-94L961,205L1302,-98Z" fill="#75984e" stroke="#75984e" stroke-width="1.51"/><path d="M1302,-98L961,205L1311,226Z" fill="#74974d" stroke="#74974d" stroke-width="1.51"/><path d="M961,205L1267,516L1311,226Z" fill="#628b37" stroke="#628b37" stroke-width="1.51"/><path d="M646,520L654,877L937,535Z" fill="#59842a" stroke="#59842a" stroke-width="1.51"/><path d="M625,-426L635,-137L937,-94Z" fill="#8fab6e" stroke="#8fab6e" stroke-width="1.51"/><path d="M646,520L937,535L961,205Z" fill="#538124" stroke="#538124" stroke-width="1.51"/><path d="M614,203L646,520L961,205Z" fill="#638b38" stroke="#638b38" stroke-width="1.51"/><path d="M937,-94L614,203L961,205Z" fill="#6e9345" stroke="#6e9345" stroke-width="1.51"/><path d="M644,1173L632,1510L962,1506Z" fill="#93ae73" stroke="#93ae73" stroke-width="1.51"/><path d="M937,535L654,877L975,847Z" fill="#5a852c" stroke="#5a852c" stroke-width="1.51"/><path d="M654,877L644,1173L975,847Z" fill="#719549" stroke="#719549" stroke-width="1.51"/><path d="M625,-426L937,-94L982,-450Z" fill="#90ac6f" stroke="#90ac6f" stroke-width="1.51"/><path d="M975,847L644,1173L987,1216Z" fill="#73974b" stroke="#73974b" stroke-width="1.51"/><path d="M644,1173L962,1506L987,1216Z" fill="#84a361" stroke="#84a361" stroke-width="1.51"/><path d="M635,-137L614,203L937,-94Z" fill="#7e9f59" stroke="#7e9f59" stroke-width="1.51"/><path d="M311,205L287,527L614,203Z" fill="#799b53" stroke="#799b53" stroke-width="1.51"/><path d="M295,-104L311,205L614,203Z" fill="#8aa767" stroke="#8aa767" stroke-width="1.51"/><path d="M319,-472L295,-104L625,-426Z" fill="#acc092" stroke="#acc092" stroke-width="1.51"/><path d="M307,1227L291,1510L632,1510Z" fill="#a9bf90" stroke="#a9bf90" stroke-width="1.51"/><path d="M625,-426L295,-104L635,-137Z" fill="#9db57f" stroke="#9db57f" stroke-width="1.51"/><path d="M295,-104L614,203L635,-137Z" fill="#8ca96a" stroke="#8ca96a" stroke-width="1.51"/><path d="M307,1227L632,1510L644,1173Z" fill="#9ab37c" stroke="#9ab37c" stroke-width="1.51"/><path d="M299,853L307,1227L644,1173Z" fill="#90ac6f" stroke="#90ac6f" stroke-width="1.51"/><path d="M614,203L287,527L646,520Z" fill="#69903f" stroke="#69903f" stroke-width="1.51"/><path d="M287,527L299,853L646,520Z" fill="#6d9244" stroke="#6d9244" stroke-width="1.51"/><path d="M646,520L299,853L654,877Z" fill="#6f9346" stroke="#6f9346" stroke-width="1.51"/><path d="M299,853L644,1173L654,877Z" fill="#809f5b" stroke="#809f5b" stroke-width="1.51"/><path d="M-50,222L-51,539L287,527Z" fill="#85a461" stroke="#85a461" stroke-width="1.51"/><path d="M-36,1213L-43,1508L291,1510Z" fill="#beceaa" stroke="#beceaa" stroke-width="1.51"/><path d="M-31,-469L-57,-102L295,-104Z" fill="#b9caa2" stroke="#b9caa2" stroke-width="1.51"/><path d="M-57,-102L-50,222L295,-104Z" fill="#a7bc8c" stroke="#a7bc8c" stroke-width="1.51"/><path d="M287,527L-51,539L299,853Z" fill="#7c9d57" stroke="#7c9d57" stroke-width="1.51"/><path d="M-51,539L-20,895L299,853Z" fill="#8ca96a" stroke="#8ca96a" stroke-width="1.51"/><path d="M-36,1213L291,1510L307,1227Z" fill="#b0c398" stroke="#b0c398" stroke-width="1.51"/><path d="M299,853L-20,895L307,1227Z" fill="#97b077" stroke="#97b077" stroke-width="1.51"/><path d="M-20,895L-36,1213L307,1227Z" fill="#a6bc8c" stroke="#a6bc8c" stroke-width="1.51"/><path d="M295,-104L-50,222L311,205Z" fill="#97b178" stroke="#97b178" stroke-width="1.51"/><path d="M-50,222L287,527L311,205Z" fill="#86a463" stroke="#86a463" stroke-width="1.51"/><path d="M-31,-469L295,-104L319,-472Z" fill="#bbcba6" stroke="#bbcba6" stroke-width="1.51"/><path d="M-372,-115L-379,198L-57,-102Z" fill="#bdcca8" stroke="#bdcca8" stroke-width="1.51"/><path d="M-367,-431L-372,-115L-57,-102Z" fill="#cdd9bd" stroke="#cdd9bd" stroke-width="1.51"/><path d="M-369,524L-371,848L-51,539Z" fill="#98b279" stroke="#98b279" stroke-width="1.51"/><path d="M-57,-102L-379,198L-50,222Z" fill="#acc193" stroke="#acc193" stroke-width="1.51"/><path d="M-369,524L-51,539L-50,222Z" fill="#93ae72" stroke="#93ae72" stroke-width="1.51"/><path d="M-379,198L-369,524L-50,222Z" fill="#a3b986" stroke="#a3b986" stroke-width="1.51"/><path d="M-355,1545L-43,1508L-36,1213Z" fill="#cddabd" stroke="#cddabd" stroke-width="1.51"/><path d="M-380,1180L-355,1545L-36,1213Z" fill="#cbd8bb" stroke="#cbd8bb" stroke-width="1.51"/><path d="M-367,-431L-57,-102L-31,-469Z" fill="#d0dac0" stroke="#d0dac0" stroke-width="1.51"/><path d="M-51,539L-371,848L-20,895Z" fill="#9ab37c" stroke="#9ab37c" stroke-width="1.51"/><path d="M-380,1180L-36,1213L-20,895Z" fill="#b4c69d" stroke="#b4c69d" stroke-width="1.51"/><path d="M-371,848L-380,1180L-20,895Z" fill="#b1c499" stroke="#b1c499" stroke-width="1.51"/><path d="M-379,198L-371,848L-369,524Z" fill="#99b27a" stroke="#99b27a" stroke-width="1.51"/><path d="M-379,198L-380,1180L-371,848Z" fill="#a7bd8c" stroke="#a7bd8c" stroke-width="1.51"/></svg>